<svg width="71" height="71" viewBox="0 0 71 71" fill="none" xmlns="http://www.w3.org/2000/svg">
<g filter="url(#filter0_d_1_1566)">
<circle cx="35.4" cy="22.6051" r="16.7999" fill="url(#paint0_linear_1_1566)"/>
</g>
<path d="M35.4001 5.80518C26.1216 5.80518 18.6001 13.3267 18.6001 22.6052C18.6001 31.8837 26.1216 39.4052 35.4001 39.4052C44.6786 39.4052 52.2001 31.8837 52.2001 22.6052C52.2001 13.3267 44.6786 5.80518 35.4001 5.80518ZM42.2339 19.5672C42.2409 19.7107 42.2426 19.8542 42.2426 19.9942C42.2426 24.3692 38.9159 29.4109 32.8294 29.4109C31.0309 29.4139 29.2698 28.8974 27.7578 27.9234C28.0151 27.9549 28.2793 27.9672 28.5471 27.9672C30.0976 27.9672 31.5239 27.4404 32.6561 26.5514C31.9661 26.5379 31.2975 26.3094 30.7435 25.8978C30.1896 25.4863 29.7778 24.9121 29.5656 24.2554C30.0611 24.3497 30.5716 24.3299 31.0583 24.1977C30.3094 24.0462 29.6359 23.6404 29.1521 23.0491C28.6682 22.4577 28.4038 21.7173 28.4036 20.9532V20.9129C28.8498 21.1597 29.3608 21.3102 29.9033 21.3277C29.2012 20.8603 28.7042 20.1424 28.5139 19.3207C28.3236 18.499 28.4544 17.6356 28.8796 16.9072C29.7108 17.9292 30.7473 18.7652 31.9221 19.3612C33.0969 19.9572 34.3837 20.2998 35.6994 20.3669C35.5321 19.657 35.6041 18.9116 35.9041 18.2468C36.2042 17.582 36.7154 17.0349 37.3585 16.6906C38.0015 16.3464 38.7403 16.2242 39.4599 16.3431C40.1796 16.462 40.8397 16.8153 41.3379 17.3482C42.0784 17.2017 42.7886 16.93 43.4379 16.5449C43.191 17.3117 42.6743 17.9627 41.9836 18.3772C42.6396 18.2982 43.2801 18.1218 43.8841 17.8539C43.4405 18.5187 42.8816 19.0989 42.2339 19.5672Z" fill="white"/>
<defs>
<filter id="filter0_d_1_1566" x="0.600098" y="0.805176" width="69.5999" height="69.5999" filterUnits="userSpaceOnUse" color-interpolation-filters="sRGB">
<feFlood flood-opacity="0" result="BackgroundImageFix"/>
<feColorMatrix in="SourceAlpha" type="matrix" values="0 0 0 0 0 0 0 0 0 0 0 0 0 0 0 0 0 0 127 0" result="hardAlpha"/>
<feOffset dy="13"/>
<feGaussianBlur stdDeviation="9"/>
<feColorMatrix type="matrix" values="0 0 0 0 0.0658854 0 0 0 0 0.0730469 0 0 0 0 0.1375 0 0 0 0.08 0"/>
<feBlend mode="normal" in2="BackgroundImageFix" result="effect1_dropShadow_1_1566"/>
<feBlend mode="normal" in="SourceGraphic" in2="effect1_dropShadow_1_1566" result="shape"/>
</filter>
<linearGradient id="paint0_linear_1_1566" x1="37.1369" y1="0.28064" x2="34.1971" y2="45.4973" gradientUnits="userSpaceOnUse">
<stop stop-color="#2161D5"/>
<stop offset="1" stop-color="#5C92F3"/>
</linearGradient>
</defs>
</svg>
